<svg width="14" height="14" viewBox="0 0 14 14" fill="none" xmlns="http://www.w3.org/2000/svg">
<path d="M11.664 12.6328H2.6641C2.16077 12.6322 1.67822 12.432 1.32232 12.0761C0.966407 11.7202 0.766204 11.2377 0.765625 10.7343V9.02344C0.765625 8.90741 0.811719 8.79613 0.893766 8.71408C0.975813 8.63203 1.08709 8.58594 1.20312 8.58594C1.31916 8.58594 1.43044 8.63203 1.51248 8.71408C1.59453 8.79613 1.64062 8.90741 1.64062 9.02344V10.7343C1.64091 11.0057 1.74884 11.2658 1.94071 11.4577C2.13259 11.6496 2.39275 11.7575 2.6641 11.7578H11.664C11.9354 11.7575 12.1955 11.6496 12.3874 11.4577C12.5793 11.2658 12.6872 11.0057 12.6875 10.7343V9.02344C12.6875 8.90741 12.7336 8.79613 12.8156 8.71408C12.8977 8.63203 13.009 8.58594 13.125 8.58594C13.241 8.58594 13.3523 8.63203 13.4344 8.71408C13.5164 8.79613 13.5625 8.90741 13.5625 9.02344V10.7343C13.5619 11.2377 13.3617 11.7202 13.0058 12.0761C12.6499 12.432 12.1674 12.6322 11.664 12.6328Z" fill="#EAEAEA"/>
<path d="M7.16406 9.73438C7.04803 9.73438 6.93675 9.68828 6.8547 9.60623C6.77266 9.52419 6.72656 9.41291 6.72656 9.29688V1.28516C6.72656 1.16912 6.77266 1.05784 6.8547 0.975797C6.93675 0.89375 7.04803 0.847656 7.16406 0.847656C7.28009 0.847656 7.39137 0.89375 7.47342 0.975797C7.55547 1.05784 7.60156 1.16912 7.60156 1.28516V9.29688C7.60156 9.41291 7.55547 9.52419 7.47342 9.60623C7.39137 9.68828 7.28009 9.73438 7.16406 9.73438Z" fill="#EAEAEA"/>
<path d="M11.0387 4.9274C10.937 4.92759 10.8384 4.89208 10.7601 4.82705L6.88522 1.62236C6.7958 1.54839 6.73943 1.44193 6.72851 1.3264C6.71758 1.21087 6.753 1.09573 6.82697 1.00631C6.90094 0.916893 7.00741 0.860522 7.12294 0.8496C7.23847 0.838677 7.35361 0.874097 7.44303 0.948068L11.3176 4.15276C11.387 4.21015 11.437 4.28756 11.4608 4.37443C11.4846 4.46129 11.481 4.55337 11.4505 4.63811C11.42 4.72284 11.364 4.7961 11.2903 4.84787C11.2167 4.89965 11.1288 4.92742 11.0387 4.9274Z" fill="#EAEAEA"/>
<path d="M3.2894 4.9274C3.19934 4.92742 3.11147 4.89965 3.03778 4.84787C2.9641 4.7961 2.90818 4.72284 2.87767 4.63811C2.84717 4.55337 2.84355 4.46129 2.86732 4.37443C2.89109 4.28756 2.94109 4.21015 3.01049 4.15276L6.8851 0.948068C6.97452 0.874097 7.08966 0.838677 7.20519 0.8496C7.32072 0.860522 7.42719 0.916893 7.50116 1.00631C7.57513 1.09573 7.61055 1.21087 7.59963 1.3264C7.5887 1.44193 7.53233 1.54839 7.44291 1.62236L3.56803 4.82705C3.48976 4.89208 3.39116 4.92759 3.2894 4.9274Z" fill="#EAEAEA"/>
</svg>
