<svg width="30" height="30" viewBox="0 0 30 30" fill="none" xmlns="http://www.w3.org/2000/svg">
<rect width="30" height="30" rx="4" fill="#262626"/>
<path d="M26.0263 22.1431C26.0264 22.1875 26.0141 22.2311 25.9908 22.269C25.9676 22.3069 25.9342 22.3376 25.8945 22.3576L19.051 25.8476C19.0167 25.8653 18.9786 25.8744 18.94 25.8742C18.9014 25.874 18.8634 25.8645 18.8293 25.8465L11.3482 21.8794C11.0423 21.7171 10.7018 21.6309 10.3555 21.628C10.0092 21.625 9.66729 21.7055 9.35867 21.8626L3.97377 24.6V13.5953L5.93573 12.6605C6.16538 12.5511 6.3422 12.355 6.42727 12.1153C6.51234 11.8756 6.49871 11.6119 6.38936 11.3823C6.28002 11.1526 6.08392 10.9758 5.84421 10.8907C5.6045 10.8056 5.34081 10.8193 5.11115 10.9286L2.73811 12.0588C2.53364 12.1565 2.36105 12.3101 2.24035 12.5019C2.11965 12.6936 2.05578 12.9157 2.05615 13.1423V25.7745C2.05646 25.9793 2.10925 26.1806 2.20947 26.3592C2.30969 26.5378 2.45401 26.6878 2.62865 26.7948C2.80329 26.9017 3.00243 26.9622 3.20706 26.9703C3.4117 26.9784 3.61501 26.934 3.79759 26.8412L10.2288 23.5729C10.263 23.5556 10.301 23.5468 10.3393 23.5472C10.3777 23.5476 10.4154 23.5573 10.4493 23.5753L17.9316 27.5423C18.2377 27.7042 18.5783 27.7901 18.9246 27.7926C19.2709 27.7951 19.6127 27.7142 19.9211 27.5567L26.767 24.0667C27.1212 23.886 27.4185 23.6109 27.6262 23.2719C27.8339 22.9329 27.9439 22.543 27.9439 22.1455V10.5415C27.9439 10.3504 27.8983 10.1622 27.8107 9.99234C27.7232 9.82252 27.5963 9.67609 27.4407 9.56527C27.285 9.45444 27.1052 9.38242 26.9161 9.35522C26.7269 9.32803 26.5341 9.34643 26.3535 9.40891L24.1962 10.1556C23.9586 10.2408 23.7642 10.4162 23.6551 10.6439C23.5461 10.8715 23.5312 11.133 23.6137 11.3715C23.6962 11.6101 23.8695 11.8065 24.0959 11.9181C24.3223 12.0297 24.5836 12.0475 24.823 11.9677L26.0263 11.5506V22.1431Z" fill="#A9A9A9"/>
<path d="M16.7101 20.8967C20.5957 15.8426 22.5504 12.1332 22.5504 9.60676C22.5504 7.60421 21.7549 5.68369 20.3389 4.26767C18.9229 2.85166 17.0024 2.05615 14.9998 2.05615C12.9973 2.05615 11.0768 2.85166 9.66074 4.26767C8.24473 5.68369 7.44922 7.60421 7.44922 9.60676C7.44922 12.1332 9.40399 15.8426 13.2896 20.8967C13.491 21.1588 13.75 21.371 14.0466 21.5171C14.3431 21.6632 14.6693 21.7391 14.9998 21.7391C15.3304 21.7391 15.6565 21.6632 15.9531 21.5171C16.2496 21.371 16.5086 21.1588 16.7101 20.8967ZM15.1904 19.727C15.168 19.7563 15.1392 19.78 15.1061 19.7964C15.0731 19.8128 15.0367 19.8213 14.9998 19.8213C14.9629 19.8213 14.9266 19.8128 14.8935 19.7964C14.8605 19.78 14.8316 19.7563 14.8093 19.727C11.173 14.9976 9.36683 11.5699 9.36683 9.60676C9.36683 8.11279 9.96031 6.68002 11.0167 5.62363C12.0731 4.56724 13.5059 3.97377 14.9998 3.97377C16.4938 3.97377 17.9266 4.56724 18.9829 5.62363C20.0393 6.68002 20.6328 8.11279 20.6328 9.60676C20.6328 11.5699 18.8267 14.9976 15.1904 19.727Z" fill="#A9A9A9"/>
<path d="M14.9999 13.4947C15.5106 13.4947 16.0162 13.3942 16.4879 13.1988C16.9597 13.0034 17.3883 12.7171 17.7494 12.356C18.1104 11.995 18.3968 11.5664 18.5922 11.0946C18.7877 10.6229 18.8882 10.1173 18.8882 9.60671C18.8882 9.09611 18.7877 8.59051 18.5922 8.11878C18.3968 7.64705 18.1104 7.21843 17.7494 6.8574C17.3883 6.49636 16.9597 6.20998 16.4879 6.01461C16.0162 5.81924 15.5106 5.71871 14.9999 5.71875C13.9689 5.71883 12.98 6.12849 12.2509 6.85762C11.5219 7.58674 11.1123 8.57561 11.1123 9.60671C11.1123 10.6378 11.5219 11.6267 12.2509 12.3558C12.98 13.0849 13.9689 13.4946 14.9999 13.4947ZM14.9999 11.5771C14.7412 11.5771 14.485 11.5261 14.2459 11.4271C14.0069 11.3281 13.7897 11.1829 13.6067 11C13.4237 10.817 13.2786 10.5998 13.1796 10.3607C13.0806 10.1217 13.0296 9.86546 13.0296 9.60671C13.0296 9.34796 13.0806 9.09175 13.1796 8.85269C13.2786 8.61364 13.4237 8.39643 13.6067 8.21346C13.7897 8.0305 14.0069 7.88537 14.2459 7.78635C14.485 7.68733 14.7412 7.63636 14.9999 7.63636C15.5225 7.63636 16.0237 7.84395 16.3932 8.21346C16.7627 8.58298 16.9703 9.08414 16.9703 9.60671C16.9703 10.1293 16.7627 10.6304 16.3932 11C16.0237 11.3695 15.5225 11.5771 14.9999 11.5771Z" fill="#A9A9A9"/>
</svg>
